<?xml version="1.0" standalone="no"?><!DOCTYPE svg PUBLIC "-//W3C//DTD SVG 1.1//EN" "http://www.w3.org/Graphics/SVG/1.1/DTD/svg11.dtd"><svg t="1776698281968" class="icon" viewBox="0 0 1024 1024" version="1.1" xmlns="http://www.w3.org/2000/svg" p-id="4880" xmlns:xlink="http://www.w3.org/1999/xlink" width="200" height="200"><path d="M512 512m-512 0a512 512 0 1 0 1024 0 512 512 0 1 0-1024 0Z" fill="#FFFFFF" p-id="4881"></path><path d="M586.952 603.438H436.047c-7.732 0-13.965 6.03-13.965 13.742v144.342c0 7.406 6.233 13.698 13.965 13.698h150.905c7.773 0 14.149-6.292 14.149-13.698V617.18c0-7.713-6.376-13.742-14.149-13.742z" fill="#000000" p-id="4882"></path><path d="M580.926 215.453c-5.556-9.583-14.626-15.94-25.4-15.94h-87.783c-11.044 0-19.991 6.357-25.606 15.94l-276.202 532.33c-9.214 17.173-1.44 27.437 14.952 27.437h87.514c12.731 0 17.546-3.251 23.922-15.075L511.49 332.072l219.25 428.073c6.5 11.824 11.251 15.075 23.92 15.075h87.576c16.31 0 24.25-10.264 15.036-27.437l-276.346-532.33z" fill="#FF3204" p-id="4883"></path></svg>